<mxfile host="app.diagrams.net" modified="2024-05-27T03:22:37.178Z" agent="Mozilla/5.0 (Windows NT 10.0; Win64; x64) AppleWebKit/537.36 (KHTML, like Gecko) Chrome/123.0.0.0 Safari/537.36" version="24.4.8" etag="FzpnMQXILbU7HiTDSM_l" type="github">
  <diagram name="第 1 页" id="yivX8iwW6WCweHl8vYA6">
    <mxGraphModel>
      <root>
        <mxCell id="0" />
        <mxCell id="1" parent="0" />
      </root>
    </mxGraphModel>
  </diagram>
</mxfile>
